<?xml version="1.0" encoding="utf-8"?>
<!-- Generator: Adobe Illustrator 23.0.3, SVG Export Plug-In . SVG Version: 6.00 Build 0)  -->
<svg version="1.1" id="Layer_1" xmlns="http://www.w3.org/2000/svg" xmlns:xlink="http://www.w3.org/1999/xlink" x="0px" y="0px"
	 viewBox="0 0 350 70.8" style="enable-background:new 0 0 350 70.8;" xml:space="preserve">
<style type="text/css">
	.st0{fill:url(#SVGID_1_);}
	.st1{fill:#FFFFFF;}
	.st2{fill:none;}
	.st3{fill:url(#SVGID_2_);}
	.st4{fill:url(#SVGID_3_);}
</style>
<linearGradient id="SVGID_1_" gradientUnits="userSpaceOnUse" x1="39.4725" y1="31.2632" x2="39.4725" y2="66.5423">
	<stop  offset="0" style="stop-color:#ED1C24"/>
	<stop  offset="7.700652e-02" style="stop-color:#D91D24"/>
	<stop  offset="0.2486" style="stop-color:#BF1E23"/>
	<stop  offset="0.4396" style="stop-color:#AD1D22"/>
	<stop  offset="0.6635" style="stop-color:#A31D21"/>
	<stop  offset="1" style="stop-color:#A01D21"/>
</linearGradient>
<path class="st0" d="M4.7,45.8c0.7,1.7,1.2,3.4,1.9,5.1C7,51.7,7.4,52.5,8,53.3c1.2,1.5,2.7,1.6,4.1,0.3c1.3-1.3,2.2-2.9,3-4.6
	c2.2-4.3,3.8-8.8,5.8-13.2c0.5-1.2,1-2.3,1.8-3.3c1-1.4,1.6-1.5,2.8-0.3c1.4,1.2,2.3,2.8,3.2,4.3c2.2,3.5,4.2,7.1,6.4,10.5
	c0.8,1.2,1.8,2.3,3,3.1c1,0.6,2,0.5,2.9-0.2c1.5-1.2,2.6-2.7,3.6-4.3c2.4-3.7,4.4-7.6,6.9-11.2c0.6-0.9,1.3-1.7,2.1-2.4
	c1.1-0.9,1.7-0.8,2.5,0.3c1.4,2.1,2.3,4.5,3.3,6.8c1.5,3.6,3,7.3,4.8,10.8c0.7,1.3,1.5,2.6,2.6,3.6c1.5,1.5,3.1,1.4,4.3-0.3
	c1.3-1.8,1.9-3.9,2.6-6c0.2-0.5,0.3-0.9,0.5-1.4c-0.3,2.9-0.8,5.7-1.4,8.5c-0.5,1.9-0.8,3.8-1.4,5.6c-0.5,1.6-1.1,3.2-1.9,4.6
	c-1.5,2.4-3.3,2.6-5.3,0.6c-1.5-1.4-2.4-3.2-3.2-5c-1.2-2.7-2.3-5.5-3.5-8.2c-0.2-0.5-0.5-1-0.8-1.5C55.9,49.1,55,49,53.9,50
	c-1.9,1.6-3.3,3.6-4.7,5.6c-2,2.7-3.9,5.4-6.1,7.9c-0.5,0.6-1.1,1.3-1.7,1.8c-1.4,1.3-2.2,1.3-3.7,0c-1.8-1.6-3.2-3.5-4.6-5.4
	c-1.9-2.5-3.7-5-5.6-7.4c-0.6-0.8-1.3-1.4-2-2.1c-1.7-1.6-2.7-1.4-3.6,0.7c-1.3,3-2.5,6-3.8,9c-0.8,1.9-1.8,3.6-3.3,5.1
	c-0.6,0.6-1.3,1-2.1,1.3c-0.9,0.2-1.6,0-2.2-0.6c-0.5-0.5-0.9-1-1.2-1.7C6.5,58.3,5.7,52,4.7,45.8z"/>
<path class="st1" d="M74.3,40.5c-2.4-9.7-7.2-17.8-15.2-23.8C47,7.5,30.1,8,18.4,17.9c-6.4,5.4-10.7,12.2-13,20.2
	c-0.1,0.4-0.2,0.7-0.3,1.1c0,0.1-0.1,0.1-0.3,0.4c0.2-1,0.3-1.7,0.4-2.5c0.1-0.8,0.3-1.6,0.5-2.4c2.2-9.4,6.7-17.5,14.3-23.5
	C33,0.9,50.4,2.1,62.5,14.3c6.9,7,10.5,15.6,11.8,25.3c0,0.2,0,0.3,0,0.5C74.3,40.2,74.3,40.3,74.3,40.5z"/>
<path class="st1" d="M133.7,52.8c0,9.1-7.7,13.7-23.1,13.7c-4.5,0-8.3-0.3-11.5-0.9c-3.2-0.6-5.9-1.4-7.9-2.6
	c-2.1-1.1-3.6-2.6-4.6-4.3c-1-1.7-1.5-3.7-1.5-6v-17h11.4v17c0,1.1,0.2,2,0.6,2.8c0.4,0.8,1.1,1.4,2.1,1.8c1,0.5,2.4,0.8,4.3,1
	c1.8,0.2,4.2,0.3,7.2,0.3c2.2,0,4.1-0.1,5.5-0.3c1.5-0.2,2.7-0.6,3.5-1c0.9-0.5,1.5-1.1,1.9-1.8c0.4-0.8,0.6-1.7,0.6-2.7v-17h11.5
	V52.8z"/>
<path class="st1" d="M186.9,65.9h-17.3L158.4,58c-1.9-1.4-3.4-2.4-4.4-3.2c-1-0.8-1.8-1.4-2.5-1.9c0,0.7,0.1,1.4,0.1,2.1
	c0,0.7,0.1,1.5,0.1,2.2v8.7h-11.5V35.8h11.5v7c0,0.9,0,1.8-0.1,2.7c0,0.9-0.1,1.7-0.2,2.5c0.7-0.5,1.6-1.2,2.7-2
	c1.1-0.8,2.4-1.8,4.1-2.9l10.7-7.3h16.6l-14.2,8.7c-1.2,0.8-2.3,1.4-3.2,2c-0.9,0.6-1.8,1.1-2.5,1.5c-0.7,0.4-1.4,0.8-2,1.1
	c-0.6,0.3-1.2,0.6-1.8,0.9c1.1,0.6,2.4,1.4,3.9,2.3c1.5,0.9,3.5,2.1,5.9,3.7L186.9,65.9z"/>
<path class="st2" d="M259.1,47c-0.7-0.3-1.7-0.6-2.9-0.7c-1.2-0.1-2.7-0.2-4.4-0.2c-1.7,0-3.2,0.1-4.4,0.2c-1.2,0.1-2.2,0.3-2.9,0.7
	c-0.7,0.3-1.3,0.8-1.6,1.4c-0.3,0.6-0.5,1.4-0.5,2.4c0,1,0.2,1.8,0.5,2.4c0.3,0.6,0.9,1.1,1.6,1.4c0.7,0.3,1.7,0.6,2.9,0.7
	c1.2,0.1,2.7,0.2,4.4,0.2c1.7,0,3.2-0.1,4.4-0.2c1.2-0.1,2.2-0.3,2.9-0.7c0.7-0.3,1.3-0.8,1.6-1.4c0.3-0.6,0.5-1.4,0.5-2.4
	c0-1-0.2-1.8-0.5-2.4C260.4,47.8,259.9,47.4,259.1,47z"/>
<path class="st2" d="M218.1,47.3c-0.7-0.3-1.6-0.5-2.7-0.6c-1.1-0.1-2.5-0.2-4.1-0.2c-1.6,0-3,0.1-4.1,0.2c-1.1,0.1-2,0.3-2.7,0.6
	c-0.7,0.3-1.2,0.8-1.5,1.3c-0.3,0.6-0.5,1.3-0.5,2.2c0,0.9,0.2,1.6,0.5,2.2c0.3,0.6,0.8,1,1.5,1.3c0.7,0.3,1.6,0.5,2.7,0.6
	c1.1,0.1,2.5,0.2,4.1,0.2c1.6,0,3-0.1,4.1-0.2c1.1-0.1,2-0.3,2.7-0.6c0.7-0.3,1.2-0.8,1.5-1.3c0.3-0.6,0.5-1.3,0.5-2.2
	c0-0.9-0.2-1.6-0.5-2.2C219.3,48,218.8,47.6,218.1,47.3z"/>
<linearGradient id="SVGID_2_" gradientUnits="userSpaceOnUse" x1="184.2104" y1="50.8362" x2="238.3158" y2="50.8362">
	<stop  offset="0" style="stop-color:#ED1C24"/>
	<stop  offset="7.700652e-02" style="stop-color:#D91D24"/>
	<stop  offset="0.2486" style="stop-color:#BF1E23"/>
	<stop  offset="0.4396" style="stop-color:#AD1D22"/>
	<stop  offset="0.6635" style="stop-color:#A31D21"/>
	<stop  offset="1" style="stop-color:#A01D21"/>
</linearGradient>
<path class="st3" d="M222.8,50.8c0-5.7,2.4-9.9,7.1-12.6c-4.5-2-10.7-3-18.7-3c-9,0-15.8,1.2-20.3,3.7c-4.5,2.5-6.7,6.4-6.7,11.8
	c0,5.4,2.2,9.4,6.7,11.9c4.5,2.5,11.3,3.7,20.3,3.7c8,0,14.2-1,18.7-2.9C225.2,60.8,222.8,56.6,222.8,50.8z M219.6,53
	c-0.3,0.6-0.8,1-1.5,1.3c-0.7,0.3-1.6,0.5-2.7,0.6c-1.1,0.1-2.5,0.2-4.1,0.2c-1.6,0-3-0.1-4.1-0.2c-1.1-0.1-2-0.3-2.7-0.6
	c-0.7-0.3-1.2-0.8-1.5-1.3c-0.3-0.6-0.5-1.3-0.5-2.2c0-0.9,0.2-1.6,0.5-2.2c0.3-0.6,0.8-1,1.5-1.3c0.7-0.3,1.6-0.5,2.7-0.6
	c1.1-0.1,2.5-0.2,4.1-0.2c1.6,0,3,0.1,4.1,0.2c1.1,0.1,2,0.3,2.7,0.6c0.7,0.3,1.2,0.8,1.5,1.3c0.3,0.6,0.5,1.3,0.5,2.2
	C220.1,51.7,219.9,52.5,219.6,53z"/>
<path class="st1" d="M333.6,35.8l-7.4,7.8H313v22.3h-11.5V43.6h-17.4l7.4-7.8H333.6z"/>
<path class="st2" d="M259.1,47.5c-0.7-0.3-1.6-0.5-2.7-0.6c-1.1-0.1-2.5-0.2-4.1-0.2c-1.6,0-3,0.1-4.1,0.2c-1.1,0.1-2,0.3-2.7,0.6
	c-0.7,0.3-1.2,0.8-1.5,1.3c-0.3,0.6-0.5,1.3-0.5,2.2c0,0.9,0.2,1.6,0.5,2.2c0.3,0.6,0.8,1,1.5,1.3c0.7,0.3,1.6,0.5,2.7,0.6
	c1.1,0.1,2.5,0.2,4.1,0.2c1.6,0,3-0.1,4.1-0.2c1.1-0.1,2-0.3,2.7-0.6c0.7-0.3,1.2-0.8,1.5-1.3c0.3-0.6,0.5-1.3,0.5-2.2
	c0-0.9-0.2-1.6-0.5-2.2C260.3,48.3,259.8,47.9,259.1,47.5z"/>
<linearGradient id="SVGID_3_" gradientUnits="userSpaceOnUse" x1="225.2046" y1="51.0841" x2="279.0369" y2="51.0841">
	<stop  offset="0" style="stop-color:#ED1C24"/>
	<stop  offset="7.700652e-02" style="stop-color:#D91D24"/>
	<stop  offset="0.2486" style="stop-color:#BF1E23"/>
	<stop  offset="0.4396" style="stop-color:#AD1D22"/>
	<stop  offset="0.6635" style="stop-color:#A31D21"/>
	<stop  offset="1" style="stop-color:#A01D21"/>
</linearGradient>
<path class="st4" d="M252.1,35.6c9,0,15.7,1.2,20.2,3.7c4.5,2.5,6.7,6.4,6.7,11.7c0,5.4-2.2,9.3-6.7,11.8
	c-4.5,2.5-11.2,3.7-20.2,3.7c-9,0-15.8-1.2-20.2-3.7c-4.5-2.5-6.7-6.4-6.7-11.8c0-5.4,2.2-9.3,6.7-11.7
	C236.4,36.8,243.1,35.6,252.1,35.6z M252.1,55.4c1.6,0,3-0.1,4.1-0.2c1.1-0.1,2-0.3,2.7-0.6c0.7-0.3,1.2-0.8,1.5-1.3
	c0.3-0.6,0.5-1.3,0.5-2.2c0-0.9-0.2-1.6-0.5-2.2c-0.3-0.6-0.8-1-1.5-1.3c-0.7-0.3-1.6-0.5-2.7-0.6c-1.1-0.1-2.5-0.2-4.1-0.2
	c-1.6,0-3,0.1-4.1,0.2c-1.1,0.1-2,0.3-2.7,0.6c-0.7,0.3-1.2,0.7-1.5,1.3c-0.3,0.6-0.5,1.3-0.5,2.2c0,0.9,0.2,1.6,0.5,2.2
	c0.3,0.6,0.8,1,1.5,1.3c0.7,0.3,1.6,0.5,2.7,0.6C249.2,55.3,250.5,55.4,252.1,55.4z"/>
<g>
	<path class="st1" d="M340.5,31.2l-1,1h-1.4l-0.5,2.9h-1.2l0.5-2.9h-1.9l1-1H340.5z"/>
	<path class="st1" d="M342.6,32.7c0.1,0.3,0.2,0.5,0.3,0.7c0.1,0.2,0.1,0.4,0.2,0.5c0-0.1,0.1-0.1,0.1-0.2c0.1-0.1,0.1-0.2,0.2-0.2
		c0.1-0.1,0.1-0.2,0.2-0.3c0.1-0.1,0.2-0.2,0.3-0.4l0.8-1.1c0.1-0.1,0.2-0.2,0.3-0.3c0.1-0.1,0.3-0.1,0.4-0.1c0.2,0,0.3,0,0.4,0.1
		c0.1,0.1,0.2,0.2,0.2,0.4l0.4,3.5h-1.2l-0.1-1.4c0-0.2,0-0.4,0-0.6c0-0.2,0-0.3,0-0.5c0,0.1-0.1,0.1-0.1,0.2c0,0.1-0.1,0.2-0.2,0.2
		c-0.1,0.1-0.1,0.2-0.2,0.3c-0.1,0.1-0.2,0.2-0.2,0.3l-0.7,1c-0.1,0.1-0.1,0.2-0.2,0.2c-0.1,0.1-0.1,0.1-0.2,0.1
		c-0.1,0-0.1,0.1-0.2,0.1c-0.1,0-0.1,0-0.2,0c-0.1,0-0.1,0-0.2,0c-0.1,0-0.1,0-0.2-0.1c-0.1,0-0.1-0.1-0.1-0.1
		c0-0.1-0.1-0.1-0.1-0.2l-0.4-1c0-0.1-0.1-0.3-0.1-0.4c0-0.1-0.1-0.2-0.1-0.3c0-0.1-0.1-0.2-0.1-0.2c0-0.1,0-0.1-0.1-0.2
		c-0.1,0.1-0.1,0.3-0.2,0.5c-0.1,0.2-0.2,0.4-0.3,0.6l-0.6,1.4h-1.2l1.6-3.5c0.1-0.2,0.2-0.3,0.3-0.4c0.1-0.1,0.3-0.1,0.4-0.1
		c0.2,0,0.3,0,0.4,0.1c0.1,0.1,0.2,0.2,0.2,0.3L342.6,32.7z"/>
</g>
</svg>
