<?xml version="1.0" encoding="utf-8"?>
<!-- Generator: Adobe Illustrator 23.0.3, SVG Export Plug-In . SVG Version: 6.00 Build 0)  -->
<svg version="1.1" id="Layer_1" xmlns="http://www.w3.org/2000/svg" xmlns:xlink="http://www.w3.org/1999/xlink" x="0px" y="0px"
	 viewBox="0 0 300 60.7" style="enable-background:new 0 0 300 60.7;" xml:space="preserve">
<style type="text/css">
	.st0{fill:url(#SVGID_1_);}
	.st1{fill:#FFFFFF;}
	.st2{fill:none;}
	.st3{fill:url(#SVGID_2_);}
	.st4{fill:url(#SVGID_3_);}
</style>
<linearGradient id="SVGID_1_" gradientUnits="userSpaceOnUse" x1="32.1747" y1="26.801" x2="32.1747" y2="57.4133">
	<stop  offset="0" style="stop-color:#ED1C24"/>
	<stop  offset="7.700652e-02" style="stop-color:#D91D24"/>
	<stop  offset="0.2486" style="stop-color:#BF1E23"/>
	<stop  offset="0.4396" style="stop-color:#AD1D22"/>
	<stop  offset="0.6635" style="stop-color:#A31D21"/>
	<stop  offset="1" style="stop-color:#A01D21"/>
</linearGradient>
<path class="st0" d="M2,39.4c0.6,1.5,1,3,1.7,4.4c0.3,0.7,0.7,1.4,1.2,2.1c1,1.3,2.4,1.4,3.6,0.2c1.2-1.1,1.9-2.5,2.6-4
	c1.9-3.7,3.3-7.7,5-11.5c0.4-1,0.9-2,1.5-2.9c0.8-1.2,1.3-1.3,2.5-0.3c1.2,1.1,2,2.4,2.8,3.7c1.9,3,3.7,6.1,5.6,9.2
	c0.7,1,1.5,2,2.6,2.7c0.8,0.5,1.7,0.4,2.5-0.2c1.3-1,2.2-2.4,3.1-3.7c2.1-3.2,3.8-6.6,6-9.7c0.5-0.8,1.1-1.5,1.8-2.1
	c0.9-0.8,1.4-0.7,2.1,0.3c1.3,1.8,2,3.9,2.9,5.9c1.3,3.1,2.6,6.3,4.1,9.4c0.6,1.1,1.3,2.2,2.2,3.2c1.3,1.3,2.7,1.2,3.8-0.3
	c1.2-1.5,1.6-3.4,2.3-5.2c0.1-0.4,0.3-0.8,0.5-1.2c-0.3,2.5-0.7,4.9-1.3,7.4c-0.4,1.6-0.7,3.3-1.2,4.9c-0.5,1.4-0.9,2.8-1.7,4
	c-1.3,2.1-2.8,2.3-4.6,0.5c-1.3-1.2-2.1-2.8-2.8-4.3c-1-2.4-2-4.8-3-7.2c-0.2-0.5-0.4-0.9-0.7-1.3c-0.7-1.1-1.4-1.2-2.4-0.4
	c-1.6,1.4-2.8,3.1-4.1,4.8c-1.7,2.3-3.4,4.7-5.3,6.9c-0.5,0.6-1,1.1-1.5,1.6c-1.2,1.1-1.9,1.1-3.2,0c-1.5-1.4-2.7-3.1-4-4.7
	c-1.6-2.1-3.2-4.3-4.9-6.4c-0.5-0.7-1.1-1.2-1.7-1.8c-1.4-1.4-2.3-1.2-3.1,0.6c-1.1,2.6-2.2,5.2-3.3,7.8c-0.7,1.6-1.6,3.2-2.8,4.4
	c-0.5,0.5-1.1,0.9-1.9,1.1c-0.8,0.2-1.4,0-1.9-0.5c-0.4-0.4-0.8-0.9-1-1.4C3.5,50.3,2.9,44.8,2,39.4z"/>
<path class="st1" d="M62.4,34.8c-2.1-8.4-6.3-15.4-13.2-20.6c-10.6-8-25.2-7.6-35.4,1C8.3,19.9,4.6,25.8,2.6,32.7
	c-0.1,0.3-0.2,0.6-0.3,1c0,0.1-0.1,0.1-0.3,0.4c0.1-0.9,0.2-1.5,0.4-2.1c0.1-0.7,0.2-1.4,0.4-2.1c1.9-8.2,5.8-15.2,12.4-20.4
	c11.4-9,26.5-7.9,37,2.7c6,6.1,9.1,13.6,10.2,22c0,0.1,0,0.3,0,0.4C62.4,34.6,62.4,34.7,62.4,34.8z"/>
<path class="st1" d="M113.9,45.4c0,7.9-6.7,11.8-20,11.8c-3.9,0-7.2-0.2-10-0.7c-2.8-0.5-5.1-1.2-6.9-2.2c-1.8-1-3.1-2.2-4-3.7
	c-0.8-1.5-1.3-3.2-1.3-5.2V30.7h9.9v14.7c0,1,0.2,1.8,0.5,2.4c0.3,0.7,0.9,1.2,1.8,1.6c0.9,0.4,2.1,0.7,3.7,0.9
	c1.6,0.2,3.7,0.3,6.2,0.3c1.9,0,3.5-0.1,4.8-0.3c1.3-0.2,2.3-0.5,3.1-0.9c0.8-0.4,1.3-1,1.7-1.6c0.3-0.7,0.5-1.4,0.5-2.3V30.7h10
	V45.4z"/>
<path class="st1" d="M160.1,56.9h-15l-9.7-6.9c-1.7-1.2-2.9-2.1-3.8-2.7c-0.9-0.7-1.6-1.2-2.1-1.6c0,0.6,0.1,1.2,0.1,1.9
	c0,0.6,0,1.3,0,1.9v7.5h-10V30.7h10v6.1c0,0.8,0,1.6,0,2.4c0,0.8-0.1,1.5-0.1,2.2c0.6-0.5,1.4-1,2.3-1.7c0.9-0.7,2.1-1.5,3.6-2.5
	l9.3-6.4h14.4l-12.3,7.5c-1.1,0.7-2,1.2-2.8,1.7c-0.8,0.5-1.5,0.9-2.2,1.3c-0.6,0.4-1.2,0.7-1.8,1c-0.5,0.3-1,0.6-1.6,0.8
	c0.9,0.5,2,1.2,3.4,2c1.3,0.8,3,1.9,5.1,3.2L160.1,56.9z"/>
<path class="st2" d="M222.8,40.5c-0.6-0.3-1.5-0.5-2.5-0.6c-1-0.1-2.3-0.2-3.8-0.2c-1.5,0-2.8,0.1-3.8,0.2c-1,0.1-1.9,0.3-2.5,0.6
	c-0.6,0.3-1.1,0.7-1.4,1.2c-0.3,0.5-0.4,1.2-0.4,2.1c0,0.8,0.1,1.5,0.4,2.1c0.3,0.5,0.8,0.9,1.4,1.2c0.6,0.3,1.5,0.5,2.5,0.6
	c1,0.1,2.3,0.2,3.8,0.2c1.5,0,2.8-0.1,3.8-0.2c1-0.1,1.9-0.3,2.5-0.6c0.6-0.3,1.1-0.7,1.4-1.2c0.3-0.5,0.4-1.2,0.4-2.1
	c0-0.8-0.1-1.5-0.4-2.1C223.9,41.2,223.4,40.8,222.8,40.5z"/>
<path class="st2" d="M187.2,40.7c-0.6-0.3-1.4-0.5-2.4-0.5c-1-0.1-2.2-0.1-3.6-0.1c-1.4,0-2.6,0-3.6,0.1c-1,0.1-1.8,0.3-2.4,0.5
	c-0.6,0.3-1,0.7-1.3,1.1c-0.3,0.5-0.4,1.1-0.4,1.9c0,0.8,0.1,1.4,0.4,1.9c0.3,0.5,0.7,0.9,1.3,1.2c0.6,0.3,1.4,0.5,2.4,0.6
	c1,0.1,2.2,0.1,3.6,0.1c1.4,0,2.6,0,3.6-0.1c1-0.1,1.8-0.3,2.4-0.6c0.6-0.3,1-0.7,1.3-1.2c0.3-0.5,0.4-1.1,0.4-1.9
	c0-0.8-0.1-1.4-0.4-1.9C188.2,41.4,187.8,41,187.2,40.7z"/>
<linearGradient id="SVGID_2_" gradientUnits="userSpaceOnUse" x1="157.7664" y1="43.7848" x2="204.7147" y2="43.7848">
	<stop  offset="0" style="stop-color:#ED1C24"/>
	<stop  offset="7.700652e-02" style="stop-color:#D91D24"/>
	<stop  offset="0.2486" style="stop-color:#BF1E23"/>
	<stop  offset="0.4396" style="stop-color:#AD1D22"/>
	<stop  offset="0.6635" style="stop-color:#A31D21"/>
	<stop  offset="1" style="stop-color:#A01D21"/>
</linearGradient>
<path class="st3" d="M191.3,43.8c0-5,2.1-8.6,6.2-10.9c-3.9-1.7-9.3-2.6-16.2-2.6c-7.8,0-13.7,1.1-17.6,3.2
	c-3.9,2.2-5.9,5.6-5.9,10.2c0,4.7,1.9,8.1,5.8,10.3c3.9,2.2,9.8,3.2,17.6,3.2c6.9,0,12.3-0.9,16.2-2.5
	C193.3,52.4,191.3,48.8,191.3,43.8z M188.5,45.7c-0.3,0.5-0.7,0.9-1.3,1.2c-0.6,0.3-1.4,0.5-2.4,0.6c-1,0.1-2.2,0.1-3.6,0.1
	c-1.4,0-2.6,0-3.6-0.1c-1-0.1-1.8-0.3-2.4-0.6c-0.6-0.3-1-0.7-1.3-1.2c-0.3-0.5-0.4-1.1-0.4-1.9c0-0.8,0.1-1.4,0.4-1.9
	c0.3-0.5,0.7-0.9,1.3-1.1c0.6-0.3,1.4-0.5,2.4-0.5c1-0.1,2.2-0.1,3.6-0.1c1.4,0,2.6,0,3.6,0.1c1,0.1,1.8,0.3,2.4,0.5
	c0.6,0.3,1,0.7,1.3,1.1c0.3,0.5,0.4,1.1,0.4,1.9C188.9,44.6,188.7,45.2,188.5,45.7z"/>
<path class="st1" d="M287.4,30.7l-6.4,6.8h-11.5v19.4h-9.9V37.5h-15.1l6.4-6.8H287.4z"/>
<path class="st2" d="M222.7,40.9c-0.6-0.3-1.4-0.5-2.4-0.5c-1-0.1-2.2-0.1-3.6-0.1c-1.4,0-2.6,0-3.6,0.1c-1,0.1-1.8,0.3-2.4,0.5
	c-0.6,0.3-1,0.7-1.3,1.1c-0.3,0.5-0.4,1.1-0.4,1.9s0.1,1.4,0.4,1.9c0.3,0.5,0.7,0.9,1.3,1.2c0.6,0.3,1.4,0.5,2.4,0.6
	c1,0.1,2.2,0.1,3.6,0.1c1.4,0,2.6,0,3.6-0.1c1-0.1,1.8-0.3,2.4-0.6c0.6-0.3,1-0.7,1.3-1.2c0.3-0.5,0.4-1.1,0.4-1.9s-0.1-1.4-0.4-1.9
	C223.8,41.6,223.3,41.2,222.7,40.9z"/>
<linearGradient id="SVGID_3_" gradientUnits="userSpaceOnUse" x1="193.3379" y1="44" x2="240.0492" y2="44">
	<stop  offset="0" style="stop-color:#ED1C24"/>
	<stop  offset="7.700652e-02" style="stop-color:#D91D24"/>
	<stop  offset="0.2486" style="stop-color:#BF1E23"/>
	<stop  offset="0.4396" style="stop-color:#AD1D22"/>
	<stop  offset="0.6635" style="stop-color:#A31D21"/>
	<stop  offset="1" style="stop-color:#A01D21"/>
</linearGradient>
<path class="st4" d="M216.7,30.6c7.8,0,13.6,1.1,17.5,3.2c3.9,2.2,5.9,5.6,5.9,10.2c0,4.7-1.9,8.1-5.8,10.2
	c-3.9,2.2-9.7,3.2-17.5,3.2c-7.8,0-13.7-1.1-17.6-3.2c-3.9-2.2-5.8-5.6-5.8-10.2c0-4.6,1.9-8,5.8-10.2
	C203,31.6,208.9,30.6,216.7,30.6z M216.7,47.7c1.4,0,2.6,0,3.5-0.1c1-0.1,1.7-0.3,2.3-0.6c0.6-0.3,1-0.7,1.3-1.1
	c0.3-0.5,0.4-1.1,0.4-1.9s-0.1-1.4-0.4-1.9c-0.3-0.5-0.7-0.9-1.3-1.1c-0.6-0.3-1.4-0.5-2.3-0.5c-1-0.1-2.1-0.1-3.5-0.1
	c-1.4,0-2.6,0-3.5,0.1c-1,0.1-1.7,0.3-2.3,0.5c-0.6,0.3-1,0.6-1.3,1.1c-0.3,0.5-0.4,1.1-0.4,1.9s0.1,1.4,0.4,1.9
	c0.3,0.5,0.7,0.9,1.3,1.1c0.6,0.3,1.4,0.5,2.3,0.6C214.1,47.7,215.3,47.7,216.7,47.7z"/>
<g>
	<path class="st1" d="M293.4,26.8l-0.9,0.9h-1.2l-0.5,2.5h-1.1l0.4-2.5h-1.6l0.9-0.9H293.4z"/>
	<path class="st1" d="M295.2,28.1c0.1,0.2,0.2,0.4,0.2,0.6c0.1,0.2,0.1,0.3,0.1,0.4c0-0.1,0.1-0.1,0.1-0.2c0-0.1,0.1-0.1,0.2-0.2
		c0.1-0.1,0.1-0.2,0.2-0.3c0.1-0.1,0.2-0.2,0.3-0.3l0.7-1c0.1-0.1,0.2-0.2,0.3-0.3c0.1-0.1,0.2-0.1,0.4-0.1c0.1,0,0.2,0,0.3,0.1
		c0.1,0.1,0.1,0.2,0.2,0.4l0.3,3h-1.1l-0.1-1.2c0-0.2,0-0.4,0-0.5c0-0.1,0-0.3,0-0.4c0,0.1-0.1,0.1-0.1,0.2c0,0.1-0.1,0.1-0.1,0.2
		c-0.1,0.1-0.1,0.2-0.2,0.2c-0.1,0.1-0.1,0.2-0.2,0.3l-0.6,0.9c-0.1,0.1-0.1,0.2-0.2,0.2c-0.1,0-0.1,0.1-0.2,0.1
		c-0.1,0-0.1,0-0.2,0.1c-0.1,0-0.1,0-0.2,0c-0.1,0-0.1,0-0.2,0c-0.1,0-0.1,0-0.1-0.1c0,0-0.1-0.1-0.1-0.1c0,0-0.1-0.1-0.1-0.2
		l-0.3-0.9c0-0.1-0.1-0.2-0.1-0.3c0-0.1-0.1-0.2-0.1-0.2c0-0.1,0-0.1-0.1-0.2c0-0.1,0-0.1-0.1-0.2c-0.1,0.1-0.1,0.3-0.2,0.4
		c-0.1,0.2-0.1,0.3-0.2,0.5l-0.5,1.2h-1l1.4-3c0.1-0.2,0.2-0.3,0.3-0.4c0.1-0.1,0.3-0.1,0.4-0.1c0.1,0,0.2,0,0.3,0.1
		c0.1,0.1,0.1,0.2,0.2,0.3L295.2,28.1z"/>
</g>
</svg>
